<svg id="Layer_1" data-name="Layer 1" xmlns="http://www.w3.org/2000/svg" viewBox="0 0 47.01 50"><defs><style>.cls-1{fill:#e7562d;}</style></defs><title>sushi-logo</title><path class="cls-1" d="M39.87,3.8a30.74,30.74,0,0,0-10-3.3L27.57.2C26.24.07,24.88,0,23.5,0A34.17,34.17,0,0,0,7.14,3.8C2.54,6.38,0,9.87,0,13.65V36.27C0,40,2.55,43.54,7.14,46.14A33.78,33.78,0,0,0,23.5,50a33.82,33.82,0,0,0,16.37-3.86C44.46,43.54,47,40,47,36.27V13.65C47,9.87,44.47,6.38,39.87,3.8ZM13.41,31.4A2.59,2.59,0,1,1,16,34,2.59,2.59,0,0,1,13.41,31.4ZM23.5,44.12a5.94,5.94,0,0,1-5.94-5.94H29.45A5.94,5.94,0,0,1,23.5,44.12ZM31,34a2.59,2.59,0,1,1,2.58-2.59A2.58,2.58,0,0,1,31,34Zm7.71-12.54A31.78,31.78,0,0,1,23.5,25a31.8,31.8,0,0,1-15.22-3.5c-3.83-2.14-5.94-4.91-5.94-7.8S4.45,8,8.28,5.85A31.69,31.69,0,0,1,23.5,2.34a39.09,39.09,0,0,1,5,.32l.13,0A28.45,28.45,0,0,1,38.72,5.85c3.84,2.14,6,4.91,6,7.8S42.56,19.31,38.72,21.45Z"/><path class="cls-1" d="M32,8.71a15.57,15.57,0,0,0-2.77-1,1.07,1.07,0,0,0-.36-.1A22.35,22.35,0,0,0,23.57,7a19.63,19.63,0,0,0-8.42,1.72c-2.53,1.25-3.92,3-3.92,4.94s1.39,3.68,3.92,4.93a19.63,19.63,0,0,0,8.42,1.73A19.61,19.61,0,0,0,32,18.58c2.53-1.25,3.92-3,3.92-4.93S34.51,10,32,8.71Z"/></svg>