<svg xmlns="http://www.w3.org/2000/svg" viewBox="0 0 380 380"><defs><style>.cls-1{fill:#f9aa0d;}</style></defs><title>Asset 1</title><g id="Layer_2" data-name="Layer 2"><g id="Layer_2-2" data-name="Layer 2"><polygon class="cls-1" points="190 18.77 199.96 0 207.9 19.7 219.76 2.08 225.6 22.51 239.24 6.22 242.91 27.15 258.18 12.38 259.65 33.57 276.38 20.48 275.62 41.71 293.62 30.43 290.65 51.47 309.74 42.14 304.58 62.75 324.54 55.47 317.25 75.42 337.86 70.27 328.53 89.35 349.57 86.38 338.29 104.38 359.52 103.62 346.43 120.35 367.62 121.82 352.85 137.09 373.78 140.76 357.49 154.4 377.92 160.24 360.3 172.1 380 180.04 361.24 190 380 199.96 360.3 207.9 377.92 219.76 357.49 225.6 373.78 239.24 352.85 242.91 367.62 258.18 346.43 259.65 359.52 276.38 338.29 275.62 349.57 293.62 328.53 290.65 337.86 309.74 317.25 304.58 324.54 324.54 304.58 317.25 309.74 337.86 290.65 328.53 293.62 349.57 275.62 338.29 276.38 359.52 259.65 346.43 258.18 367.62 242.91 352.85 239.24 373.78 225.6 357.49 219.76 377.92 207.9 360.3 199.96 380 190 361.24 180.04 380 172.1 360.3 160.24 377.92 154.4 357.49 140.76 373.78 137.09 352.85 121.82 367.62 120.35 346.43 103.62 359.52 104.38 338.29 86.38 349.57 89.35 328.53 70.27 337.86 75.42 317.25 55.47 324.54 62.75 304.58 42.14 309.74 51.47 290.65 30.43 293.62 41.71 275.62 20.48 276.38 33.57 259.65 12.38 258.18 27.15 242.91 6.22 239.24 22.51 225.6 2.08 219.76 19.7 207.9 0 199.96 18.77 190 0 180.04 19.7 172.1 2.08 160.24 22.51 154.4 6.22 140.76 27.15 137.09 12.38 121.82 33.57 120.35 20.48 103.62 41.71 104.38 30.43 86.38 51.47 89.35 42.14 70.27 62.75 75.42 55.47 55.47 75.42 62.75 70.27 42.14 89.35 51.47 86.38 30.43 104.38 41.71 103.62 20.48 120.35 33.57 121.82 12.38 137.09 27.15 140.76 6.22 154.4 22.51 160.24 2.08 172.1 19.7 180.04 0 190 18.77"/></g></g></svg>